# xmcd
#
# Track frame offsets:
#	150
#	98038
#	112607
#	273024
#
# Disc length: 4105 seconds
#
# Revision: 1
# Processed by: cddbd v1.5.2PL0 Copyright (c) Steve Scherf et al.
# Submitted via: audiograbber 1.83.01
#
DISCID=21100704
DTITLE=Sigi Zimmerschied - Werkschau 1983 - 1989 CD2
DYEAR=1983
DGENRE=Cabaret Bayrisch
TTITLE0=Reaktionen auf`s Volkstheater
TTITLE1=Betondeppn
TTITLE2=Klassentreffen
TTITLE3=Das Kulturkneipenlied
EXTD=
EXTT0=
EXTT1=
EXTT2=
EXTT3=
PLAYORDER=
